PathFileType	4	(X/Y/Z)	Patient4_TMGait_0pt2_01_left_20.trc.trc
DataRate	CameraRate	NumFrames	NumMarkers	Units	OrigDataRate	OrigDataStartFrame	OrigNumFrames
44.164037854890	44.164037854890	4	33	mm	44.164037854890	53	       141
Frame#	Time	Sacral			L.Shoulder			Chest			R.Shoulder			Neck			R.ASIS			L.ASIS			R.Thigh.Superior			R.Thigh.Lateral			R.Thigh.Inferior			R.Patella			L.Thigh.Superior			L.Thigh.Lateral			L.Thigh.Inferior			L.Patella			L.Shank.Superior			L.Shank.Lateral			L.Shank.Inferior			R.Shank.Superior			R.Shank.Lateral			R.Shank.Inferior			R.Heel			R.Midfoot.Superior			R.Midfoot.Lateral			R.Toe			L.Heel			L.Midfoot.Lateral			L.Midfoot.Superior			L.Toe			L.Elbow			L.Wrist			R.Elbow			R.Wrist			
		X1	Y1	Z1	X2	Y2	Z2	X3	Y3	Z3	X4	Y4	Z4	X5	Y5	Z5	X6	Y6	Z6	X7	Y7	Z7	X8	Y8	Z8	X9	Y9	Z9	X10	Y10	Z10	X11	Y11	Z11	X12	Y12	Z12	X13	Y13	Z13	X14	Y14	Z14	X15	Y15	Z15	X16	Y16	Z16	X17	Y17	Z17	X18	Y18	Z18	X19	Y19	Z19	X20	Y20	Z20	X21	Y21	Z21	X22	Y22	Z22	X23	Y23	Z23	X24	Y24	Z24	X25	Y25	Z25	X26	Y26	Z26	X27	Y27	Z27	X28	Y28	Z28	X29	Y29	Z29	X30	Y30	Z30	X31	Y31	Z31	X32	Y32	Z32	X33	Y33	Z33	

53	47.187428571429	716.256359144540	997.730705836189	452.526844059728	880.640485637844	1426.136942631367	269.087355462949	999.433682607733	1348.908926172661	414.822382826538	941.067118945734	1417.119262862203	599.498210826482	881.792513400899	1483.732191424661	429.694613832766	951.322390642659	922.134382013551	550.536937431541	919.426959209417	952.884209755843	280.688169546754	982.576963245918	717.011654399627	527.650433182841	905.934147093158	614.085555195229	603.394604170657	974.565375055999	549.528014525637	521.355696292150	962.034380585644	441.926626881777	546.423956338359	984.923880604498	749.480817103147	332.587486266521	914.681138821784	616.470075009319	278.714090847726	1000.669557033438	551.734817882790	354.895180631448	1006.252622584020	475.342174970612	365.914272521876	965.546443648162	401.756289752090	358.834976316108	864.587502728546	300.546540953883	302.779073250743	888.371580243332	185.881356172531	378.915593751118	879.818673451658	383.057387065801	565.893537688842	763.556097722040	357.744150534757	640.780462415602	734.098008126520	248.535989116062	599.714842033730	525.955814950160	209.230817282675	597.465206103554	687.045721224407	127.997228181194	625.725453563738	582.201478933570	142.368848547488	665.478432109669	738.896363655841	28.832380641030	644.898175822127	736.221458753159	42.314402281885	406.147904223507	816.552020783524	38.568608017494	332.720603134947	899.722486829896	96.135871562686	366.877552798990	1027.787624406181	39.043748748672	346.673813124338	826.488670460193	1080.055078915138	145.516240635330	878.898415651516	822.546270191770	153.807236261352	1026.514002679626	1064.456908169605	680.344074599811	1202.056264816995	880.323953079244	642.811453356445	
54	47.210071428571	715.866249388249	994.751344773591	447.591725425638	883.308269264217	1424.803167085700	268.432205331485	999.810376903235	1346.398477368955	415.378042661873	938.747055811134	1412.729246045971	600.021213253296	882.346612770487	1481.195869964863	429.719048978396	950.456190147831	920.145664464850	547.695215792068	920.950983469619	950.732244360843	277.638081649128	988.066512552338	717.279180102619	523.454214168341	915.531830750337	612.704524829145	599.464838857141	985.563794498326	549.781215698486	516.440107158207	975.285988171135	440.748645538847	542.277103056492	986.936087608983	747.565327466313	330.787064458863	917.399675069697	613.926820308753	277.634731435875	1002.988153446177	549.814860459820	355.134860742283	1008.520285682382	472.904853650338	366.578473832343	966.500178518398	399.341882044441	359.205221194596	864.153160927817	299.632080832789	302.901246101596	885.693958852210	184.756145775444	379.162550909715	891.278707336466	382.604848222228	562.046899626926	773.350745972502	361.618811327940	636.034666431856	741.354615215443	252.588634498905	596.458680996219	532.831364672012	221.489349650452	592.033030353449	690.293022546816	132.974679148404	623.952865037365	585.211622813153	152.951731503407	661.812305803143	736.302814080107	28.162369848789	645.659993862934	731.764160143729	42.455558007117	406.137143868874	812.096307206580	38.622617033871	332.730719276288	895.310514529295	96.040708236237	367.025398356439	1023.301721483507	38.957383885134	346.645151613683	840.369175571386	1078.474029841259	140.165866319763	903.629774069932	823.368620825839	146.880190406272	1006.727616507387	1056.491548953384	683.556696125132	1164.614478759655	854.074520355002	657.072241571006	
55	47.232714285714	715.291417630626	991.754496397800	443.016845693153	886.123977016171	1423.252277115150	268.093589344394	1000.247498135382	1343.628697631938	416.250532499964	936.408573450765	1408.181954619922	600.755639957653	883.063101223991	1478.471213446150	430.039143136721	949.362379756208	917.989294357718	545.268471151514	922.323738830410	948.396763112001	274.982130926848	993.200683987638	717.744721068481	519.358849662587	924.935505872240	611.543930040699	595.574053941594	996.246601455440	550.459259221644	511.446957772500	988.395331640193	440.062275217855	537.874598809991	988.792393744236	745.527432217035	329.343660566331	919.950567114132	611.304741416853	276.845587240108	1005.097193476999	547.811840252830	355.687166179209	1010.568640181776	470.423728131319	367.579546901115	967.276849839353	396.885801409228	359.814722212908	863.629460898070	298.684633729780	303.135636164128	882.932925658704	183.582097688046	379.455661997559	902.740221301587	382.396222978556	557.896751930569	783.087691627404	365.253908846753	630.674467497868	749.069723234294	256.296644746296	592.482816385226	540.248978179418	231.790582671002	585.231419699441	694.712976944613	137.998903594711	621.504886862136	589.253302080013	162.704073410387	657.205886190514	735.742387586615	28.042698592114	646.530707253779	727.271720317675	42.526326212716	406.076251839639	807.622766081651	38.621696491440	332.700446323935	890.855856323730	95.923599161400	367.159994652941	1018.801809036782	38.894968323980	346.618339396116	854.735436949836	1077.321266166372	134.841584237826	929.547246419489	825.325490799869	140.229638334401	985.688795840864	1049.469234855519	687.081568687078	1124.651205231431	831.552827574772	670.685953809130	
56	47.255357142857	714.552711034561	988.929065572047	438.807466439774	889.126461725097	1421.621755237493	268.062429266843	1000.745521616786	1340.789034839517	417.471079304881	934.009322322970	1403.736860690662	601.678170456993	883.937359994864	1475.741881178846	430.605435911386	948.003723574312	915.830874078924	543.339827465988	923.604981385504	946.036706122464	272.801338845486	997.838189211246	718.550904698492	515.519808418530	933.884473971597	610.749149461005	591.822710824647	1006.394842606295	551.690962788454	506.576572409595	1001.140658162097	440.046260968981	533.401502846550	990.433784977158	743.438965581918	328.304240149054	922.194317416975	608.732316172224	276.347432792561	1006.795995591644	545.790259137914	356.542646246059	1012.170591588779	467.997056099777	368.889003766448	967.690469736113	394.494350778039	360.637732015263	862.886402957853	297.750349066816	303.463142142490	880.030101618326	182.412895091337	379.784224537102	914.087451751421	382.514799721472	553.593537280747	792.686391232707	368.448474432064	624.856597753879	757.392090091143	259.396163429393	587.894089826318	548.310120928809	239.241195277723	577.257955831591	700.729126172544	142.710115567349	618.402055272003	594.688737328585	170.854173063570	651.773915666540	738.121271256878	28.581861558473	647.428338467617	722.742157461372	42.530295658547	405.967792752041	803.129898183707	38.569844163466	332.632827399769	886.358313933656	95.791281995114	367.275683227744	1014.287355566377	38.853049629574	346.593655474381	869.497099292898	1076.789258299003	129.564173649245	956.534604534148	828.708803297095	133.910726316212	963.531468666542	1043.734416375249	690.773638645035	1082.889990067023	813.178344469427	683.319965409100	
